<svg xmlns="http://www.w3.org/2000/svg" viewBox="0 0 126 88"><defs><style>.cls-1{fill:#404041;}.cls-2{fill:#ef3b25;}</style></defs><g id="Layer_3" data-name="Layer 3"><g id="Type_as_Outlines" data-name="Type as Outlines"><path d="M11.16,67.63a6,6,0,0,1-2.5.45A4.41,4.41,0,0,1,4,63.3a4.7,4.7,0,0,1,4.93-5,5.16,5.16,0,0,1,2.24.42l-.29,1A4.39,4.39,0,0,0,9,59.37c-2.21,0-3.68,1.41-3.68,3.89,0,2.31,1.33,3.8,3.63,3.8a4.8,4.8,0,0,0,2-.4Z"/><path d="M12.59,63.28c0-.8,0-1.49-.05-2.12h1.08l0,1.33h.05A2,2,0,0,1,15.59,61a1.25,1.25,0,0,1,.35,0v1.16a1.71,1.71,0,0,0-.42,0,1.73,1.73,0,0,0-1.65,1.58,3.22,3.22,0,0,0-.06.57v3.62H12.59Z"/><path d="M17.72,64.77A2.17,2.17,0,0,0,20,67.13a4.54,4.54,0,0,0,1.88-.35l.21.88a5.38,5.38,0,0,1-2.25.42,3.15,3.15,0,0,1-3.34-3.42c0-2,1.21-3.65,3.18-3.65,2.22,0,2.8,1.94,2.8,3.19a3.65,3.65,0,0,1,0,.57Zm3.61-.88a1.75,1.75,0,0,0-1.71-2,2,2,0,0,0-1.89,2Z"/><path d="M27.8,67.94l-.1-.86h0a2.51,2.51,0,0,1-2.07,1,1.93,1.93,0,0,1-2.08-1.94c0-1.64,1.46-2.54,4.08-2.53v-.13a1.39,1.39,0,0,0-1.54-1.57,3.39,3.39,0,0,0-1.77.5L24,61.61a4.18,4.18,0,0,1,2.23-.6c2.07,0,2.58,1.41,2.58,2.77v2.53a10,10,0,0,0,.11,1.63Zm-.18-3.46c-1.35,0-2.87.21-2.87,1.53a1.09,1.09,0,0,0,1.16,1.17,1.7,1.7,0,0,0,1.64-1.13,1.4,1.4,0,0,0,.07-.39Z"/><path d="M32.22,59.21v1.95H34v.94H32.22v3.65c0,.84.24,1.32.93,1.32a2.82,2.82,0,0,0,.71-.08l.06.92a3,3,0,0,1-1.09.17,1.72,1.72,0,0,1-1.34-.52A2.51,2.51,0,0,1,31,65.8V62.1H30v-.94H31V59.53Z"/><path d="M36.75,59.25a.77.77,0,0,1-1.53,0,.75.75,0,0,1,.77-.77A.74.74,0,0,1,36.75,59.25Zm-1.38,8.69V61.16H36.6v6.78Z"/><path d="M39.12,61.16,40.46,65c.22.62.4,1.18.54,1.74h0c.16-.56.35-1.12.58-1.74l1.31-3.81h1.29l-2.66,6.78H40.38l-2.57-6.78Z"/><path d="M45.93,64.77a2.17,2.17,0,0,0,2.32,2.36,4.54,4.54,0,0,0,1.88-.35l.21.88a5.41,5.41,0,0,1-2.25.42,3.15,3.15,0,0,1-3.34-3.42c0-2,1.21-3.65,3.18-3.65,2.21,0,2.8,1.94,2.8,3.19a5.55,5.55,0,0,1,0,.57Zm3.61-.88a1.75,1.75,0,0,0-1.71-2,2,2,0,0,0-1.89,2Z"/><path d="M55.22,63.37c0-.87,0-1.57,0-2.21h1.1l.06,1.16h0A2.67,2.67,0,0,1,58.77,61c1.64,0,2.87,1.38,2.87,3.44,0,2.44-1.49,3.64-3.08,3.64A2.38,2.38,0,0,1,56.47,67h0v3.68H55.22Zm1.22,1.81a2.54,2.54,0,0,0,.06.5,1.89,1.89,0,0,0,1.85,1.45c1.3,0,2.06-1.07,2.06-2.62,0-1.36-.72-2.52-2-2.52a2,2,0,0,0-1.86,1.52,1.76,1.76,0,0,0-.09.51Z"/><path d="M66.94,67.94l-.09-.86h0a2.5,2.5,0,0,1-2.07,1,1.93,1.93,0,0,1-2.07-1.94c0-1.64,1.45-2.54,4.07-2.53v-.13a1.39,1.39,0,0,0-1.54-1.57,3.33,3.33,0,0,0-1.76.5l-.28-.81a4.14,4.14,0,0,1,2.22-.6C67.45,61,68,62.42,68,63.78v2.53a10,10,0,0,0,.11,1.63Zm-.18-3.46c-1.34,0-2.87.21-2.87,1.53a1.09,1.09,0,0,0,1.16,1.17,1.7,1.7,0,0,0,1.64-1.13,1.4,1.4,0,0,0,.07-.39Z"/><path d="M69.94,63.28c0-.8,0-1.49-.06-2.12H71l0,1.33h.06A2,2,0,0,1,72.93,61a1.25,1.25,0,0,1,.35,0v1.16a1.71,1.71,0,0,0-.42,0,1.74,1.74,0,0,0-1.65,1.58,3.27,3.27,0,0,0,0,.57v3.62H69.94Z"/><path d="M76.34,59.21v1.95H78.1v.94H76.34v3.65c0,.84.23,1.32.92,1.32A3,3,0,0,0,78,67l0,.92a3,3,0,0,1-1.09.17,1.68,1.68,0,0,1-1.33-.52,2.5,2.5,0,0,1-.48-1.76V62.1h-1v-.94h1V59.53Z"/><path d="M79.48,63c0-.7,0-1.27,0-1.83h1.09l.07,1.12h0A2.5,2.5,0,0,1,82.86,61c.94,0,2.4.56,2.4,2.88v4H84V64c0-1.09-.4-2-1.57-2a1.74,1.74,0,0,0-1.65,1.26,1.91,1.91,0,0,0-.08.57v4.08H79.48Z"/><path d="M87.94,64.77a2.18,2.18,0,0,0,2.33,2.36,4.52,4.52,0,0,0,1.87-.35l.21.88a5.38,5.38,0,0,1-2.25.42,3.15,3.15,0,0,1-3.34-3.42c0-2,1.21-3.65,3.18-3.65,2.22,0,2.81,1.94,2.81,3.19a3.4,3.4,0,0,1,0,.57Zm3.62-.88a1.76,1.76,0,0,0-1.71-2,2,2,0,0,0-1.89,2Z"/><path d="M94.27,63.28c0-.8,0-1.49-.06-2.12h1.08l0,1.33h.06A2,2,0,0,1,97.27,61a1.29,1.29,0,0,1,.35,0v1.16a1.82,1.82,0,0,0-.42,0,1.74,1.74,0,0,0-1.66,1.58,4.65,4.65,0,0,0-.05.57v3.62H94.27Z"/><path d="M98.68,66.68a3.2,3.2,0,0,0,1.62.49c.9,0,1.32-.45,1.32-1s-.35-.91-1.26-1.25c-1.22-.43-1.79-1.1-1.79-1.92a2.09,2.09,0,0,1,2.34-2,3.32,3.32,0,0,1,1.66.42l-.31.89a2.58,2.58,0,0,0-1.38-.39c-.73,0-1.14.42-1.14.92s.41.82,1.29,1.15c1.18.45,1.78,1,1.78,2,0,1.19-.92,2-2.53,2a3.88,3.88,0,0,1-1.91-.46Z"/><path d="M107.48,67.94V62.1h-1v-.94h1v-.32a3.18,3.18,0,0,1,.79-2.37,2.35,2.35,0,0,1,1.65-.63,2.79,2.79,0,0,1,1,.2l-.17,1a1.72,1.72,0,0,0-.78-.16c-1,0-1.32.93-1.32,2v.36h1.64v.94H108.7v5.84Z"/><path d="M117.4,64.49a3.31,3.31,0,0,1-3.38,3.6,3.22,3.22,0,0,1-3.25-3.48,3.31,3.31,0,0,1,3.37-3.6A3.21,3.21,0,0,1,117.4,64.49Zm-5.38.07c0,1.49.86,2.61,2.06,2.61s2.06-1.11,2.06-2.64c0-1.14-.58-2.6-2-2.6S112,63.28,112,64.56Z"/><path d="M119,63.28c0-.8,0-1.49-.06-2.12H120l0,1.33h0A2,2,0,0,1,122,61a1.25,1.25,0,0,1,.35,0v1.16a1.76,1.76,0,0,0-.42,0,1.72,1.72,0,0,0-1.65,1.58,3.22,3.22,0,0,0-.06.57v3.62H119Z"/><path d="M13.42,81.94l-.1-.86h0a2.5,2.5,0,0,1-2.07,1,1.93,1.93,0,0,1-2.07-1.94c0-1.64,1.45-2.54,4.07-2.53v-.13a1.39,1.39,0,0,0-1.54-1.57,3.33,3.33,0,0,0-1.76.5l-.28-.81a4.14,4.14,0,0,1,2.22-.6c2.08,0,2.58,1.41,2.58,2.77v2.53a10,10,0,0,0,.11,1.63Zm-.18-3.46c-1.34,0-2.87.21-2.87,1.53a1.09,1.09,0,0,0,1.16,1.17,1.7,1.7,0,0,0,1.64-1.13,1.4,1.4,0,0,0,.07-.39Z"/><path d="M24.22,81.69a4.53,4.53,0,0,1-1.95.39,3.22,3.22,0,0,1-3.38-3.46A3.45,3.45,0,0,1,22.54,75a4.14,4.14,0,0,1,1.71.35l-.29.95A2.8,2.8,0,0,0,22.54,76a2.56,2.56,0,0,0-.05,5.1A3.45,3.45,0,0,0,24,80.76Z"/><path d="M31.71,78.49a3.31,3.31,0,0,1-3.38,3.6,3.22,3.22,0,0,1-3.25-3.48A3.31,3.31,0,0,1,28.44,75,3.21,3.21,0,0,1,31.71,78.49Zm-5.38.07c0,1.49.85,2.61,2.06,2.61s2.06-1.11,2.06-2.64c0-1.14-.58-2.6-2-2.6S26.33,77.28,26.33,78.56Z"/><path d="M33.26,77c0-.7,0-1.27-.06-1.83h1.09l.07,1.12h0A2.5,2.5,0,0,1,36.63,75c.94,0,2.4.56,2.4,2.88v4H37.8V78c0-1.09-.41-2-1.57-2a1.74,1.74,0,0,0-1.65,1.26,1.62,1.62,0,0,0-.09.57v4.08H33.26Z"/><path d="M41,77c0-.7,0-1.27-.06-1.83h1.09l.08,1.12h0A2.5,2.5,0,0,1,44.4,75c.94,0,2.4.56,2.4,2.88v4H45.57V78c0-1.09-.41-2-1.57-2a1.74,1.74,0,0,0-1.65,1.26,1.62,1.62,0,0,0-.09.57v4.08H41Z"/><path d="M49.48,78.77a2.18,2.18,0,0,0,2.33,2.36,4.61,4.61,0,0,0,1.88-.35l.21.88a5.47,5.47,0,0,1-2.26.42,3.14,3.14,0,0,1-3.33-3.42c0-2,1.2-3.65,3.18-3.65,2.21,0,2.8,1.94,2.8,3.19a5.55,5.55,0,0,1,0,.57Zm3.62-.88a1.76,1.76,0,0,0-1.71-2,2,2,0,0,0-1.89,2Z"/><path d="M60.64,81.69a4.47,4.47,0,0,1-1.94.39,3.22,3.22,0,0,1-3.38-3.46A3.44,3.44,0,0,1,59,75a4.07,4.07,0,0,1,1.71.35l-.28.95A2.81,2.81,0,0,0,59,76a2.56,2.56,0,0,0,0,5.1,3.4,3.4,0,0,0,1.51-.34Z"/><path d="M63.75,73.21v2h1.77v.94H63.75v3.65c0,.84.24,1.32.92,1.32a2.85,2.85,0,0,0,.72-.08l.06.92a3,3,0,0,1-1.1.17A1.71,1.71,0,0,1,63,81.56a2.51,2.51,0,0,1-.47-1.76V76.1h-1v-.94h1V73.53Z"/><path d="M67.5,78.77a2.18,2.18,0,0,0,2.33,2.36,4.52,4.52,0,0,0,1.87-.35l.21.88a5.38,5.38,0,0,1-2.25.42,3.14,3.14,0,0,1-3.33-3.42c0-2,1.2-3.65,3.17-3.65,2.22,0,2.81,1.94,2.81,3.19a3.4,3.4,0,0,1,0,.57Zm3.62-.88a1.76,1.76,0,0,0-1.71-2,2,2,0,0,0-1.89,2Z"/><path d="M79.68,72v8.2c0,.6,0,1.29.06,1.75H78.63l0-1.18h0a2.5,2.5,0,0,1-2.31,1.33c-1.64,0-2.9-1.38-2.9-3.44,0-2.26,1.39-3.64,3-3.64a2.25,2.25,0,0,1,2,1h0V72Zm-1.23,5.93a2.29,2.29,0,0,0,0-.52A1.83,1.83,0,0,0,76.62,76c-1.28,0-2,1.12-2,2.62s.67,2.51,2,2.51a1.86,1.86,0,0,0,1.81-1.47,2.27,2.27,0,0,0,0-.53Z"/><path d="M85.18,75.16l.9,3.45c.2.75.38,1.45.5,2.15h0c.15-.68.37-1.41.6-2.14l1.1-3.46h1l1,3.39c.25.81.45,1.53.6,2.21h0a21.2,21.2,0,0,1,.51-2.2l1-3.4h1.22l-2.19,6.78H90.46l-1-3.24a19.54,19.54,0,0,1-.6-2.22h0a20.29,20.29,0,0,1-.62,2.24l-1.09,3.22H86l-2-6.78Z"/><path d="M101,78.49a3.31,3.31,0,0,1-3.37,3.6,3.22,3.22,0,0,1-3.25-3.48A3.31,3.31,0,0,1,97.73,75,3.2,3.2,0,0,1,101,78.49Zm-5.38.07c0,1.49.86,2.61,2.06,2.61s2.06-1.11,2.06-2.64c0-1.14-.57-2.6-2-2.6S95.61,77.28,95.61,78.56Z"/><path d="M102.54,77.28c0-.8,0-1.49-.05-2.12h1.08l0,1.33h0A2,2,0,0,1,105.54,75a1.25,1.25,0,0,1,.35,0v1.16a1.76,1.76,0,0,0-.42,0,1.73,1.73,0,0,0-1.65,1.58,3.22,3.22,0,0,0-.06.57v3.62h-1.22Z"/><path d="M107.18,72h1.23v10h-1.23Z"/><path d="M116.34,72v8.2c0,.6,0,1.29,0,1.75h-1.1l-.06-1.18h0a2.5,2.5,0,0,1-2.31,1.33c-1.64,0-2.9-1.38-2.9-3.44,0-2.26,1.39-3.64,3-3.64a2.28,2.28,0,0,1,2,1h0V72Zm-1.24,5.93a2.29,2.29,0,0,0,0-.52A1.82,1.82,0,0,0,113.27,76c-1.28,0-2,1.12-2,2.62s.67,2.51,2,2.51a1.86,1.86,0,0,0,1.81-1.47,2.27,2.27,0,0,0,0-.53Z"/></g></g><g id="Layer_1" data-name="Layer 1"><polyline class="cls-1" points="38.6 37.31 31.53 37.31 31.53 21.62 15.68 21.62 15.68 37.31 8.56 37.31 8.56 0.15 15.68 0.15 15.68 15.03 31.53 15.03 31.53 0.15 38.6 0.15 38.6 37.31"/><path class="cls-1" d="M49.82,26.28a7,7,0,0,0,6.91,5.46,6.42,6.42,0,0,0,5.84-3.21h7.55C68.51,34.15,63.64,38,56.78,38a14.28,14.28,0,0,1-14.13-14.4A14.37,14.37,0,0,1,56.78,9c8.14,0,14.89,6.31,13.87,17.24H49.82m13.82-5.79a6.92,6.92,0,0,0-6.91-5.24,7.06,7.06,0,0,0-6.8,5.24Z"/><path class="cls-1" d="M87.49,42.34c-2.68,7.18-6.91,8.14-12.69,7.77V43.68c3.53.21,5.19-.64,6.37-3.8l.8-2.09L71.32,9.73h7.49l6.75,19.92L92.15,9.73H99.7L87.49,42.34"/><path class="cls-2" d="M99.93,20.65V37.38h7.56a7.78,7.78,0,0,1-1.56,4.46,6.2,6.2,0,0,1-5.08,2h-.92v6.44h1c5.55,0,9.57-1.67,12.13-4.49s3.64-6.67,3.64-10.82V20.65H99.93"/></g></svg>